<?xml version="1.0" encoding="UTF-8"?>
<svg id="_图层_1" data-name="图层 1" xmlns="http://www.w3.org/2000/svg" viewBox="0 0 86.24 86.24">
  <defs>
    <style>
      .cls-1 {
        fill: #ace4d6;
      }

      .cls-2 {
        fill: #fff;
      }

      .cls-3 {
        fill: #52595f;
      }

      .cls-4 {
        fill: #1cc29f;
      }

      .cls-5 {
        fill: #373b3f;
      }

      .cls-6 {
        fill: none;
        stroke: #f7131c;
        stroke-miterlimit: 27.71;
        stroke-width: 9px;
      }
    </style>
  </defs>
  <path class="cls-4" d="M37.89,47.72l5.23-3.07-21.77-12.79v12.63c1.63-.9,3.69-1.36,6.04-1.36,5.12,0,8.37,2.21,10.5,4.59M28.28,65.34c2.18,0,3.83-.65,3.83-2.33s-2.11-2.36-4.72-3.02c-1.94-.51-4.17-1.01-6.04-1.97v3.24c1.57,2.58,4.18,4.07,6.93,4.07"/>
  <path class="cls-3" d="M64.89,57.43v-25.58l-21.77,12.79,21.77,12.79Z"/>
  <path class="cls-1" d="M64.89,31.85l-21.77-12.79-21.77,12.79,21.77,12.79,21.77-12.79Z"/>
  <path class="cls-5" d="M43.12,44.64l-5.23,3.07-5.61,3.3c-1.43-1.16-3.26-2-4.93-2-2.04,0-3.08.69-3.08,1.96,0,1.47,1.42,2.17,3.38,2.74.41.12.85.23,1.3.35,4.33,1.05,10.12,2.4,10.12,8.44,0,1.27-.26,2.53-.84,3.68h26.65v-8.76l-21.77-12.79h0Z"/>
  <path class="cls-2" d="M28.96,54.07c-.44-.11-.87-.22-1.3-.35-1.97-.57-3.38-1.27-3.38-2.74,0-1.27,1.04-1.96,3.08-1.96,1.67,0,3.49.84,4.93,2l5.61-3.3c-2.13-2.38-5.37-4.59-10.5-4.59-2.36,0-4.41.47-6.04,1.36v13.55c1.87.96,4.1,1.47,6.04,1.97,2.61.65,4.72,1.31,4.72,3.02s-1.65,2.33-3.83,2.33c-2.75,0-5.36-1.49-6.93-4.07v4.92h16.9c.57-1.15.84-2.42.84-3.68,0-6.04-5.79-7.38-10.12-8.44"/>
  <g id="layer1">
    <path id="path5159" class="cls-6" d="M20.74,15.62l47.73,55.58"/>
    <path id="path7099" class="cls-6" d="M4.61,40.2C6.23,18.93,24.78,3,46.04,4.61c21.27,1.61,37.2,20.17,35.58,41.43-1.61,21.27-20.16,37.2-41.43,35.59-21.27-1.61-37.2-20.17-35.58-41.43Z"/>
  </g>
</svg>